<?xml version="1.0" encoding="UTF-8" standalone="no"?>
<!-- Created with Inkscape (http://www.inkscape.org/) -->

<svg
   width="70.426712mm"
   height="58.983429mm"
   viewBox="0 0 70.426712 58.983429"
   version="1.1"
   id="svg5"
   inkscape:export-filename="C:\Users\adamj\Desktop\LOGO.png"
   inkscape:export-xdpi="96"
   inkscape:export-ydpi="96"
   inkscape:version="1.1.2 (b8e25be833, 2022-02-05)"
   sodipodi:docname="logo strony.svg"
   xmlns:inkscape="http://www.inkscape.org/namespaces/inkscape"
   xmlns:sodipodi="http://sodipodi.sourceforge.net/DTD/sodipodi-0.dtd"
   xmlns="http://www.w3.org/2000/svg"
   xmlns:svg="http://www.w3.org/2000/svg">
  <sodipodi:namedview
     id="namedview7"
     pagecolor="#ffffff"
     bordercolor="#666666"
     borderopacity="1.0"
     inkscape:pageshadow="2"
     inkscape:pageopacity="0.0"
     inkscape:pagecheckerboard="0"
     inkscape:document-units="mm"
     showgrid="false"
     showguides="true"
     inkscape:guide-bbox="true"
     fit-margin-top="0"
     fit-margin-left="0"
     fit-margin-right="0"
     fit-margin-bottom="0"
     inkscape:zoom="2"
     inkscape:cx="96"
     inkscape:cy="134"
     inkscape:window-width="1920"
     inkscape:window-height="1017"
     inkscape:window-x="-8"
     inkscape:window-y="-8"
     inkscape:window-maximized="1"
     inkscape:current-layer="layer1" />
  <defs
     id="defs2">
    <clipPath
       clipPathUnits="userSpaceOnUse"
       id="clipPath10798">
      <path
         id="path10800"
         style="fill:#ff0000;fill-opacity:1;fill-rule:nonzero;stroke:none;stroke-width:0.264583"
         d="M 23.804748,74.241464 9.6009643,74.241993 V 121.38897 H 26.61698 V 74.24198 h -1.337386 c 0.0082,0.01212 0.01613,0.02402 0.03101,0.04496 0.0038,0.0052 0.0072,0.01111 0.01188,0.0155 0.0015,0.0016 -0.0015,-0.0042 -0.0021,-0.0062 -0.0019,-0.0021 -0.0077,-0.0081 -0.0057,-0.0062 0.01673,0.01585 0.03349,0.03211 0.05013,0.04806 0.03514,0.04979 0.03098,0.037 0.05323,0.115755 0.0038,0.01336 2e-5,0.02858 0.0057,0.04134 -3.18e-4,-0.0045 -0.002,-0.01923 0.0031,-0.02066 0.0066,-0.0019 0.0088,0.01042 0.01188,0.01654 0.01522,0.02976 0.02867,0.06071 0.04289,0.09095 0.02276,0.06224 0.01773,0.05224 0.04393,0.111103 0.005,0.01122 0.0094,0.02326 0.01602,0.03359 0.0017,0.0026 0.0053,0.0049 0.0083,0.0041 0.002,-5.29e-4 -0.0037,-0.007 -0.0021,-0.0057 0.01005,0.0084 0.01851,0.0182 0.02791,0.02739 0.0056,0.0058 0.01174,0.01116 0.01654,0.01757 0.0034,0.0045 0.0069,0.0089 0.01033,0.01344 2.91e-4,1.88e-4 10e-4,1.48e-4 10e-4,5.29e-4 0.04152,0.02686 0.05253,0.03966 0.07855,0.136943 0.0076,0.02842 -0.01215,0.05796 -0.01395,0.08733 -4.24e-4,0.0066 0.006,-0.02246 0.0098,-0.01704 0.0053,0.0077 -2.41e-4,0.01834 -0.0016,0.02791 0.0063,0.0076 0.02414,0.0648 0.02584,0.06976 0.0018,0.0059 0.0044,0.01156 0.0057,0.01757 0.0029,0.01365 0.0084,0.02754 0.0083,0.04134 v 5.29e-4 c 0.0081,0.01543 0.01609,0.03212 0.0217,0.04857 0.0024,0.0042 0.0049,0.0084 0.0078,0.01344 0.0077,0.01103 0.01998,0.02896 0.04341,0.06356 0.005,0.01373 0.01199,0.02706 0.01499,0.04134 0.0012,0.0057 0.0024,0.01109 0.0036,0.01707 0.0017,0.0019 0.0035,0.0033 0.0052,0.0052 0.03597,0.07474 0.03195,0.07775 0.05426,0.15658 -0.02378,0.136925 -0.0052,0.08709 -0.0708,-0.03566 -0.0065,0.02514 -0.01414,0.04168 -0.02067,0.02479 -0.0094,-0.02421 -0.01047,-0.0497 -0.0093,-0.07596 -0.01558,-0.02434 -0.03399,-0.05025 -0.05633,-0.07752 -0.01002,-0.01222 -0.03175,0.0019 -0.04754,0.0026 -0.346788,0.01818 0.422569,0.313388 0.07648,0.342098 -0.01923,0.0016 -0.04491,0.01916 -0.05788,0.0052 -0.175366,-0.193114 -0.137858,-0.345109 -0.164331,-0.173114 0.01925,0.01259 0.03902,0.02477 0.05478,0.04134 0.01394,0.01466 -0.02655,-0.005 -0.05013,-0.02635 0.0071,0.02135 0.0147,0.04276 0.02015,0.06459 -0.0017,-0.0024 -0.0071,-0.01233 -0.0093,-0.01654 -0.01257,-0.02434 -0.02202,-0.0499 -0.03307,-0.07493 0.0023,0.0016 0.0049,0.003 0.0072,0.0047 -10e-4,-0.01762 -0.0011,-0.400185 -0.04599,-0.125056 -0.0038,0.02358 0.0044,0.03655 0.01344,0.05374 0.0099,0.01085 0.02135,0.02037 0.02945,0.03256 0.0056,0.0084 -0.0152,-0.01296 -0.0217,-0.02066 -0.0035,-0.0041 -0.0047,-0.008 -0.0078,-0.01188 -0.01781,-0.02252 -0.03211,-0.04224 -0.04651,-0.06718 -0.0094,-0.01807 -0.02595,-0.04636 -0.02945,-0.06718 -6.35e-4,-0.0039 -0.0011,-0.0079 -0.0016,-0.01188 -0.01071,-0.01947 -0.02228,-0.0423 -0.0217,-0.05116 0.0035,-0.05327 0.02834,-0.106508 0.01964,-0.159163 -3.43e-4,-0.0021 -9.26e-4,-0.0034 -0.001,-0.0047 -0.0017,-5.3e-4 -0.0024,-0.0011 -0.0036,-0.0016 -0.0075,0.01016 -0.01861,0.08629 -0.02325,0.116271 -7.94e-4,0.0049 1.24e-4,0.0097 0.0021,0.01447 -0.0173,-0.0512 -0.04412,-0.100282 -0.04237,-0.156064 1.23e-4,-0.01318 -2.01e-4,-0.02699 0,-0.04082 v -5.29e-4 c -0.01842,-0.01812 -0.03859,-0.03412 -0.05478,-0.05426 -0.05329,-0.06633 -0.08409,-0.14232 -0.111105,-0.222211 -0.0043,-0.01198 -0.007,-0.02439 -0.01292,-0.03565 -0.0087,-0.01667 -0.02249,-0.03057 -0.03049,-0.04754 -0.02161,-0.04557 -0.03462,-0.07398 -0.04341,-0.09354 -0.05073,-0.04912 -0.08645,-0.110064 -0.125056,-0.168982 -0.02898,-0.04662 -0.05551,-0.08993 -0.0801,-0.134358 h -0.695565 c 0.0086,0.03145 0.01668,0.06321 0.02377,0.09508 0.0036,0.01617 0.0048,0.03279 0.0098,0.04858 0.0042,0.01326 0.01135,0.02556 0.01705,0.03824 0.04138,0.07035 0.05077,0.152419 0.07648,0.22841 9.6e-5,2.64e-4 -7.4e-5,7.93e-4 0,0.0011 6.35e-4,0.003 0.0031,0.0141 0.0041,0.01913 0.01,0.02379 0.0163,0.04912 0.02635,0.07286 0.0057,0.01355 0.01272,0.02654 0.01912,0.03979 0.02758,0.04653 0.04237,0.0992 0.06408,0.148312 -0.0084,0.01749 0.0113,0.01582 0.0155,0.02479 0.0092,0.01945 0.01766,0.03976 0.02636,0.05943 0.0031,0.01344 0.01731,0.04685 0.01344,0.04754 0.0064,5.9e-5 0.0079,0.0146 0.0041,0.05684 -0.02797,0.31545 -0.335163,0.314106 -0.352433,0.05064 -0.0036,-0.0047 -0.007,-0.0096 -0.01085,-0.01497 -0.0093,-0.01328 -0.01861,-0.02701 -0.02791,-0.04031 -0.0031,-0.0071 -0.0062,-0.01413 -0.0093,-0.02119 -0.0032,-0.0034 -0.0059,-0.0071 -0.0088,-0.01085 -0.01208,-0.01582 -0.01976,-0.03483 -0.02945,-0.0522 -3.18e-4,-0.0026 -2.4e-4,-0.0051 -5.29e-4,-0.0078 0,0 -5.29e-4,-5.29e-4 -5.29e-4,-5.29e-4 -0.018,-0.01572 -0.0179,-0.04432 -0.02481,-0.06718 -0.0034,-0.01135 -0.0043,-0.02344 -0.0062,-0.03514 -0.0042,-0.0249 -0.0061,-0.04844 -0.0062,-0.07028 -0.0057,-0.01633 -0.0098,-0.03318 -0.01809,-0.04857 -0.01465,-0.03384 -0.01844,-0.03968 -0.01964,-0.04083 -8.2e-4,-0.0011 -0.0032,-0.0084 -0.02687,-0.07751 v -5.3e-4 c -0.0073,-0.01228 -0.01459,-0.02455 -0.02119,-0.03721 -0.02203,-0.04223 -0.03963,-0.08712 -0.04702,-0.134358 -0.0041,-0.02649 -0.0056,-0.05125 -0.0052,-0.07441 -0.0016,-0.0078 -0.0035,-0.01556 -0.0052,-0.02326 -0.01258,-0.05842 -0.02867,-0.115364 -0.04754,-0.172082 -1.54e-4,-5.3e-4 -3.71e-4,-0.0016 -5.29e-4,-0.0021 z m 1.521354,0.757058 c 1.48e-4,-0.0099 8.47e-4,-0.01992 0.001,-0.02997 -0.0079,-0.0095 -0.01686,-0.01953 -0.02687,-0.031 -0.0015,-0.0016 -0.0021,-0.0026 -0.0026,-0.0026 -0.0036,2.65e-4 0.01358,0.03887 0.02067,0.05271 0.002,0.004 0.0047,0.0075 0.0078,0.01085 z m -0.226859,-0.431499 c 5.29e-4,5.3e-4 0.0011,0.0016 0.0016,0.0021 0.0066,0.0044 0.02584,0.01791 0.01964,0.01291 -0.0068,-0.0055 -0.01398,-0.01 -0.02119,-0.01498 z m -1.166854,0.119891 c 6.62e-4,0.0016 0.0016,0.0035 0.0021,0.0047 0.0024,0.0033 0.0067,0.0096 0.0093,0.01344 -0.0032,-0.0063 -0.0076,-0.01212 -0.01137,-0.0181 z m 0.381889,0.24443 c -0.008,-5.8e-5 -0.01602,2.2e-4 -0.02429,5.29e-4 -0.009,2.65e-4 -0.01782,0.0019 -0.02687,0.0026 -0.01054,0.04769 -0.0168,0.111252 -0.02584,0.166397 0.0066,0.0052 0.01383,0.01249 0.02015,0.01654 0.04845,-0.0013 0.09618,-0.0026 0.134876,0.01035 0.03994,-0.02212 0.0643,-0.06032 0.07545,-0.06253 -4.76e-4,-2.64e-4 -0.0014,-7.94e-4 -0.0021,-0.0016 -0.03323,-0.03404 -0.03791,-0.104466 -0.07803,-0.122992 0.0012,0.0037 0.0023,0.0074 0.0047,0.01447 4.77e-4,7.94e-4 0.0011,0.0013 0.0016,0.0021 0.0013,0.0044 0.0043,0.01482 0.0052,0.01757 -0.0029,-0.0081 -0.0049,-0.01426 -0.0067,-0.01963 -0.0036,-0.0055 -0.0073,-0.01101 -0.01085,-0.01654 -0.0016,-5.29e-4 -0.0029,-0.0019 -0.0047,-0.0021 -5.55e-4,-1.04e-4 -0.0015,9.8e-5 -0.0021,0 0.0056,0.01863 0.0041,0.05051 -5.3e-4,0.05839 -0.0014,0.0016 -0.0038,0.0016 -0.0057,-0.0021 -0.0087,-0.0172 -0.0056,-0.03744 -0.0041,-0.05736 -0.01493,-0.0021 -0.03098,-0.004 -0.05013,-0.0041 z m -0.293006,0.0011 c -0.0032,-5.29e-4 -0.0066,0.04121 0.0031,0.05168 0.0019,0.0021 0.0036,0.0043 0.0057,0.0062 -0.0017,-0.01847 -0.0035,-0.03663 -0.0072,-0.05478 -3.97e-4,-0.0021 -0.0011,-0.003 -0.0016,-0.0031 z m 1.323951,0.05891 c 0.01406,0.04021 0.02398,0.05592 0.04082,0.06873 9e-4,-0.0058 -0.005,-0.02296 -0.04082,-0.06873 z m 0.04651,0.07235 -5.3e-4,5.29e-4 c 4.24e-4,2.65e-4 0.0011,9.8e-5 0.0016,5.3e-4 -2.46e-4,-2.62e-4 -0.001,-7.94e-4 -0.001,-0.0011 z m 0.0062,0.0052 c 0.006,0.0037 0.01263,0.0077 0.02067,0.01241 0.0059,0.0021 0.02,0.007 0.02429,0.0083 -0.02223,-0.01124 -0.03597,-0.01701 -0.04496,-0.02066 z m 0.295589,0.03359 c 0.01843,0.02964 0.03303,0.06883 0.0078,0.0088 -0.0049,-0.0057 -0.0044,-0.0049 -0.0078,-0.0088 z m -0.304374,0.106456 c -0.0012,0.0078 -7.14e-4,0.03811 0.0036,0.04909 7.14e-4,0.0016 0.0013,0.0035 0.0021,0.0052 -0.0011,-0.01765 -0.0015,-0.03523 -0.0041,-0.05271 -6.08e-4,-0.0039 -0.0011,-0.0039 -0.0016,-0.0016 z m 0.321944,0.01188 c -0.0021,6.1e-5 -0.0024,0.0016 0,0.0052 0.0079,0.01209 0.01685,0.02328 0.02635,0.03411 -2.58e-4,0.0076 3.18e-4,-0.0067 5.3e-4,-0.02479 -0.01138,-0.0084 -0.02274,-0.0146 -0.02687,-0.01447 z m 0.02635,0.03928 c 0.0108,0.01228 0.0224,0.02408 0.03411,0.03566 -7.41e-4,-0.0095 -0.0018,-0.01918 -0.0041,-0.02842 -0.0023,-0.0093 -0.01482,-0.02093 -0.02739,-0.03049 -8.47e-4,0.0078 -0.0023,0.01558 -0.0026,0.02326 z" />
    </clipPath>
    <clipPath
       clipPathUnits="userSpaceOnUse"
       id="clipPath10808">
      <path
         id="path10810"
         style="fill:#ff0000;fill-opacity:1;fill-rule:nonzero;stroke:none;stroke-width:0.264583"
         d="m 17.255277,63.12793 v 58.98348 H 80.027674 V 63.12793 Z m 7.581966,10.458275 c 0.07167,2.1e-5 0.154707,0.05324 0.21084,0.176734 0.03742,0.08233 0.03264,0.06702 0.06718,0.168981 0.0075,0.02201 0.01145,0.04509 0.02015,0.06667 0.02539,0.06272 0.07456,0.135585 0.110071,0.192235 0.03089,0.04686 0.03395,0.05229 0.06511,0.09612 0.0037,0.0052 0.0072,0.01111 0.01188,0.0155 0.0015,0.0016 -0.0015,-0.0042 -0.0021,-0.0062 -0.0019,-0.0021 -0.0077,-0.0081 -0.0057,-0.0062 0.01673,0.01585 0.03349,0.03211 0.05013,0.04806 0.03514,0.04979 0.03098,0.037 0.05323,0.115755 0.0038,0.01336 8e-6,0.02858 0.0057,0.04134 -3.17e-4,-0.0045 -0.002,-0.01923 0.0031,-0.02066 0.0066,-0.0019 0.0088,0.01042 0.01188,0.01654 0.01522,0.02976 0.02867,0.06071 0.04289,0.09095 0.02276,0.06224 0.01772,0.05224 0.04392,0.111103 0.005,0.01122 0.0094,0.02326 0.01602,0.03359 0.0017,0.0026 0.0053,0.0049 0.0083,0.0041 0.002,-5.29e-4 -0.0037,-0.007 -0.0021,-0.0057 0.01005,0.0084 0.01851,0.0182 0.02791,0.02739 0.0056,0.0058 0.01174,0.01116 0.01654,0.01757 0.0034,0.0045 0.0069,0.0089 0.01034,0.01344 2.91e-4,1.88e-4 0.001,1.48e-4 0.001,5.29e-4 0.04152,0.02686 0.05253,0.03966 0.07855,0.136943 0.0076,0.02842 -0.01215,0.05796 -0.01395,0.08733 -4.23e-4,0.0066 0.006,-0.02246 0.0098,-0.01704 0.0053,0.0077 -2.41e-4,0.01834 -0.0016,0.02791 0.0063,0.0076 0.02414,0.0648 0.02584,0.06976 0.0018,0.0059 0.0044,0.01156 0.0057,0.01757 0.0029,0.01365 0.0084,0.02754 0.0083,0.04134 v 5.29e-4 c 0.0081,0.01543 0.01609,0.03212 0.0217,0.04857 0.0024,0.0042 0.0049,0.0084 0.0078,0.01344 0.0077,0.01103 0.01998,0.02896 0.04341,0.06356 0.005,0.01373 0.01199,0.02706 0.01499,0.04134 0.0012,0.0057 0.0024,0.01109 0.0036,0.01707 0.0017,0.0019 0.0035,0.0033 0.0052,0.0052 0.03597,0.07474 0.03195,0.07775 0.05426,0.15658 -0.02378,0.136925 -0.0052,0.08709 -0.0708,-0.03566 -0.0065,0.02514 -0.01414,0.04168 -0.02067,0.02479 -0.0094,-0.02421 -0.01047,-0.0497 -0.0093,-0.07596 -0.01558,-0.02434 -0.03399,-0.05025 -0.05633,-0.07752 -0.01002,-0.01222 -0.03175,0.0019 -0.04754,0.0026 -0.346787,0.01818 0.422569,0.313388 0.07648,0.342098 -0.01923,0.0016 -0.04491,0.01916 -0.05788,0.0052 -0.175367,-0.193114 -0.137858,-0.345109 -0.164332,-0.173114 0.01925,0.01259 0.03902,0.02477 0.05478,0.04134 0.01394,0.01466 -0.02655,-0.005 -0.05013,-0.02635 0.0071,0.02135 0.0147,0.04276 0.02015,0.06459 -0.0017,-0.0024 -0.0071,-0.01233 -0.0093,-0.01654 -0.01257,-0.02434 -0.02202,-0.0499 -0.03307,-0.07493 0.0023,0.0016 0.0049,0.003 0.0072,0.0047 -0.001,-0.01762 -0.0011,-0.400185 -0.04599,-0.125056 -0.0038,0.02358 0.0044,0.03655 0.01343,0.05374 0.0099,0.01085 0.02135,0.02037 0.02946,0.03256 0.0056,0.0084 -0.0152,-0.01296 -0.0217,-0.02066 -0.0035,-0.0041 -0.0047,-0.008 -0.0078,-0.01188 -0.01781,-0.02252 -0.03211,-0.04224 -0.04651,-0.06718 -0.0094,-0.01807 -0.02596,-0.04636 -0.02946,-0.06718 -6.35e-4,-0.0039 -0.0011,-0.0079 -0.0016,-0.01188 -0.01071,-0.01947 -0.02226,-0.0423 -0.0217,-0.05116 0.0035,-0.05327 0.02834,-0.106508 0.01964,-0.159163 -3.44e-4,-0.0021 -9.26e-4,-0.0034 -0.001,-0.0047 -0.0017,-5.3e-4 -0.0024,-0.0011 -0.0036,-0.0016 -0.0075,0.01016 -0.01861,0.08629 -0.02325,0.116271 -7.94e-4,0.0049 1.26e-4,0.0097 0.0021,0.01447 -0.0173,-0.0512 -0.04415,-0.100282 -0.04237,-0.156064 1.22e-4,-0.01318 -2.02e-4,-0.02699 0,-0.04082 v -5.29e-4 c -0.01842,-0.01812 -0.03859,-0.03412 -0.05478,-0.05426 -0.05329,-0.06633 -0.08409,-0.14232 -0.111104,-0.222211 -0.0043,-0.01198 -0.007,-0.02439 -0.01292,-0.03565 -0.0087,-0.01667 -0.02249,-0.03057 -0.03049,-0.04754 -0.02161,-0.04557 -0.03462,-0.07398 -0.04341,-0.09354 -0.05073,-0.04912 -0.08645,-0.110064 -0.125057,-0.168982 -0.05823,-0.09368 -0.106878,-0.173852 -0.148828,-0.276984 -0.0065,-0.01617 -0.0096,-0.03354 -0.01499,-0.05013 -0.0084,-0.02572 -0.01644,-0.05132 -0.02636,-0.07648 -0.0087,-0.02191 -0.01977,-0.04316 -0.02946,-0.06459 -0.08757,-0.192646 -0.0033,-0.321974 0.108521,-0.321945 z m 0.488859,1.412317 c 1.48e-4,-0.0099 8.47e-4,-0.01992 0.001,-0.02997 -0.0079,-0.0095 -0.01686,-0.01953 -0.02687,-0.031 -0.0015,-0.0016 -0.0021,-0.0026 -0.0026,-0.0026 -0.0036,2.65e-4 0.01358,0.03887 0.02067,0.05271 0.002,0.004 0.0047,0.0075 0.0078,0.01085 z m -1.407149,-1.300695 v 5.3e-4 h 5.29e-4 5.3e-4 c 0.08203,-8e-6 0.166952,0.07634 0.183968,0.238228 0.0073,0.06936 0.01756,0.138038 0.03824,0.204639 0.02155,0.06434 0.03953,0.129649 0.05426,0.195853 0.0036,0.01617 0.0048,0.03279 0.0098,0.04858 0.0042,0.01326 0.01135,0.02556 0.01705,0.03824 0.04138,0.07035 0.05077,0.152419 0.07648,0.22841 9.7e-5,2.64e-4 -7.4e-5,7.94e-4 0,0.0011 6.35e-4,0.003 0.0031,0.0141 0.0041,0.01913 0.01,0.02379 0.0163,0.04911 0.02635,0.07286 0.0057,0.01355 0.01272,0.02654 0.01912,0.03979 0.02758,0.04653 0.04237,0.0992 0.06408,0.148312 -0.0084,0.01749 0.0113,0.01582 0.0155,0.02479 0.0092,0.01945 0.01766,0.03976 0.02636,0.05943 0.0031,0.01344 0.01731,0.04685 0.01344,0.04754 0.0064,5.8e-5 0.0079,0.01461 0.0041,0.05684 -0.02765,0.311864 -0.324781,0.310896 -0.348299,0.05633 -0.0049,-0.0061 -0.0097,-0.0131 -0.01499,-0.02066 -0.0093,-0.01328 -0.01861,-0.02701 -0.02791,-0.04031 -0.0031,-0.0071 -0.0062,-0.01413 -0.0093,-0.02119 -0.0032,-0.0034 -0.0059,-0.0071 -0.0088,-0.01085 -0.01208,-0.01582 -0.01976,-0.03483 -0.02945,-0.05219 -3.18e-4,-0.0026 -2.4e-4,-0.0051 -5.29e-4,-0.0078 0,0 -5.3e-4,-5.29e-4 -5.3e-4,-5.29e-4 -0.018,-0.01572 -0.0179,-0.04432 -0.0248,-0.06718 -0.0034,-0.01135 -0.0043,-0.02344 -0.0062,-0.03514 -0.0042,-0.0249 -0.0061,-0.04844 -0.0062,-0.07028 -0.0057,-0.01632 -0.0098,-0.03318 -0.01809,-0.04857 -0.01465,-0.03383 -0.01844,-0.03969 -0.01964,-0.04083 -8.2e-4,-0.0011 -0.0032,-0.0084 -0.02687,-0.07751 v -5.29e-4 c -0.0073,-0.01228 -0.01459,-0.02455 -0.02119,-0.03721 -0.02203,-0.04223 -0.03962,-0.08712 -0.04702,-0.134358 -0.0042,-0.02709 -0.0057,-0.05235 -0.0052,-0.07597 -0.0016,-0.0075 -0.0036,-0.01487 -0.0052,-0.02222 -0.01258,-0.05843 -0.02817,-0.115363 -0.04703,-0.172082 -0.02569,-0.08592 -0.04236,-0.173675 -0.05116,-0.263033 -0.01806,-0.183602 0.07137,-0.282144 0.164331,-0.282154 z m 1.18029,0.869196 c 5.29e-4,5.3e-4 0.0011,0.0016 0.0016,0.0021 0.0066,0.0044 0.02584,0.01791 0.01964,0.01291 -0.0068,-0.0055 -0.01398,-0.01 -0.02119,-0.01498 z m -1.166854,0.119891 c 6.62e-4,0.0016 0.0016,0.0035 0.0021,0.0047 0.0025,0.0035 0.0073,0.01093 0.0098,0.01447 -0.0032,-0.0067 -0.0079,-0.01283 -0.01188,-0.01913 z m 0.381889,0.24443 c -0.008,-5.8e-5 -0.01602,2.2e-4 -0.02429,5.29e-4 -0.01,2.65e-4 -0.0174,0.0038 -0.02739,0.0047 -0.01026,0.04745 -0.01641,0.10999 -0.02532,0.16433 0.0066,0.0052 0.01383,0.01249 0.02015,0.01654 0.04845,-0.0013 0.09618,-0.0026 0.134875,0.01035 0.03994,-0.02212 0.0643,-0.06032 0.07545,-0.06253 -4.76e-4,-2.65e-4 -0.0014,-7.94e-4 -0.0021,-0.0016 -0.03253,-0.03332 -0.03917,-0.09963 -0.077,-0.11989 0.0011,0.0034 0.0018,0.0058 0.0036,0.01138 4.76e-4,7.93e-4 0.0011,0.0013 0.0016,0.0021 0.0013,0.0044 0.0043,0.01482 0.0052,0.01757 -0.0029,-0.0082 -0.0049,-0.01426 -0.0067,-0.01963 -0.0032,-0.005 -0.0066,-0.01 -0.0098,-0.01498 -0.0022,-7.94e-4 -0.0033,-0.0031 -0.0057,-0.0036 -5.56e-4,-1.03e-4 -0.0015,9.8e-5 -0.0021,0 0.0056,0.01863 0.0041,0.05051 -5.29e-4,0.05839 -0.0014,0.0016 -0.0038,0.0016 -0.0057,-0.0021 -0.0087,-0.0172 -0.0056,-0.03744 -0.0041,-0.05736 -0.01493,-0.0021 -0.03098,-0.004 -0.05013,-0.0041 z m -0.293006,0.0011 c -0.0032,-5.29e-4 -0.0066,0.04121 0.0031,0.05168 0.0019,0.0021 0.0036,0.0043 0.0057,0.0062 -0.0017,-0.01847 -0.0035,-0.03663 -0.0072,-0.05478 -3.97e-4,-0.0021 -0.0011,-0.003 -0.0016,-0.0031 z m 1.323951,0.05891 c 0.01406,0.04021 0.02398,0.05592 0.04082,0.06873 9e-4,-0.0058 -0.005,-0.02296 -0.04082,-0.06873 z m 0.04651,0.07235 -5.3e-4,5.29e-4 c 4.24e-4,2.65e-4 0.0011,9.8e-5 0.0016,5.3e-4 -2.46e-4,-2.62e-4 -0.001,-7.94e-4 -0.001,-0.0011 z m 0.0062,0.0052 c 0.006,0.0037 0.01263,0.0077 0.02067,0.01241 0.0059,0.0021 0.02,0.007 0.02429,0.0083 -0.02223,-0.01124 -0.03597,-0.01701 -0.04496,-0.02066 z m 0.295589,0.03359 c 0.01843,0.02964 0.03303,0.06883 0.0078,0.0088 -0.0049,-0.0057 -0.0044,-0.0049 -0.0078,-0.0088 z m -0.304374,0.106456 c -0.0012,0.0078 -7.14e-4,0.03811 0.0036,0.04909 7.14e-4,0.0016 0.0013,0.0035 0.0021,0.0052 -0.0011,-0.01765 -0.0015,-0.03523 -0.0041,-0.05271 -6.08e-4,-0.0039 -0.0011,-0.0039 -0.0016,-0.0016 z m 0.321944,0.01188 c -0.0021,6.1e-5 -0.0024,0.0016 0,0.0052 0.0079,0.01209 0.01685,0.02328 0.02635,0.03411 -2.58e-4,0.0076 3.18e-4,-0.0067 5.3e-4,-0.02479 -0.01138,-0.0084 -0.02274,-0.0146 -0.02687,-0.01447 z m 0.02635,0.03928 c 0.0108,0.01228 0.0224,0.02408 0.03411,0.03566 -7.41e-4,-0.0095 -0.0018,-0.01918 -0.0041,-0.02842 -0.0023,-0.0093 -0.01482,-0.02093 -0.02739,-0.03049 -8.47e-4,0.0078 -0.0023,0.01558 -0.0026,0.02326 z" />
    </clipPath>
  </defs>
  <g
     inkscape:groupmode="layer"
     id="layer2"
     inkscape:label="Warstwa 2"
     transform="translate(-68.019363,-79.500319)"
     style="display:inline" />
  <g
     inkscape:label="Warstwa 1"
     inkscape:groupmode="layer"
     id="layer1"
     style="display:inline"
     transform="translate(-68.019363,-79.500319)">
    <text
       xml:space="preserve"
       style="font-size:10.5833px;line-height:1.25;font-family:sans-serif;word-spacing:0px;stroke-width:0.264583"
       x="34.237228"
       y="76.519264"
       id="text18963"><tspan
         sodipodi:role="line"
         id="tspan18961"
         style="stroke-width:0.264583"
         x="34.237228"
         y="76.519264"></tspan></text>
    <path
       style="fill:#ffffff;fill-opacity:1;stroke:#000000;stroke-width:2.582;stroke-linecap:butt;stroke-linejoin:miter;stroke-miterlimit:4;stroke-dasharray:none;stroke-opacity:1"
       d="M 22.973299,75.773046 21.3012,71.351005 70.635604,64.535289 c 8.936325,18.463686 11.073794,34.794284 3.511127,52.158031 l -56.797635,4.13074"
       id="path1567"
       sodipodi:nodetypes="ccccc"
       clip-path="url(#clipPath10808)"
       transform="translate(58.947567,16.769213)"
       inkscape:export-filename="C:\Users\adamj\Desktop\LOGO2.png"
       inkscape:export-xdpi="96"
       inkscape:export-ydpi="96" />
    <path
       style="fill:#ffffff;stroke:#000000;stroke-width:2.582;stroke-linecap:butt;stroke-linejoin:miter;stroke-miterlimit:4;stroke-dasharray:none;stroke-opacity:1"
       d="m 11.193824,78.152112 c 5.911362,22.736588 7.623416,34.754298 7.443348,42.965198 9.002014,-24.513757 6.865879,-29.744582 4.336127,-45.344264 z"
       id="path857"
       sodipodi:nodetypes="cccc"
       clip-path="url(#clipPath10798)"
       transform="translate(58.947567,16.769213)"
       inkscape:export-filename="C:\Users\adamj\Desktop\LOGO2.png"
       inkscape:export-xdpi="96"
       inkscape:export-ydpi="96" />
    <path
       style="fill:#bfbfbf;fill-opacity:1;stroke:#bfbfbf;stroke-width:0.264583px;stroke-linecap:butt;stroke-linejoin:miter;stroke-opacity:1"
       d="m 80.954972,94.164035 -7.590229,1.52321 c 4.291654,5.283895 4.129208,15.247225 5.317134,35.229285 l 0.996579,-3.63109 1.144393,-4.06855 1.70546,-7.74887 v 0 l 0.579209,-7.36692 -0.112993,-2.08701 -0.619611,-4.36309 z"
       id="path9089"
       sodipodi:nodetypes="ccccccccccc"
       inkscape:export-filename="C:\Users\adamj\Desktop\LOGO2.png"
       inkscape:export-xdpi="96"
       inkscape:export-ydpi="96" />
    <path
       style="fill:#bfbfbf;fill-opacity:1;stroke:#bfbfbf;stroke-width:0.264583px;stroke-linecap:butt;stroke-linejoin:miter;stroke-opacity:1"
       d="m 84.876733,88.802025 c 8.628849,17.808145 -1.180783,42.575905 -1.322917,44.450015 l 45.971354,-2.4474 v 1.62045 l -1.91606,0.14617 -5.41973,0.38002 -19.37537,1.42071 -7.840181,0.56711 -11.716428,0.85359 -4.052673,0.29534 c 2.022011,-12.76914 11.019228,-18.19483 2.824903,-46.962275 z"
       id="path10878"
       sodipodi:nodetypes="cccccccccccc"
       inkscape:export-filename="C:\Users\adamj\Desktop\LOGO2.png"
       inkscape:export-xdpi="96"
       inkscape:export-ydpi="96" />
    <text
       xml:space="preserve"
       style="font-size:10.5833px;line-height:1.25;font-family:sans-serif;word-spacing:0px;stroke-width:0.264583"
       x="79.396439"
       y="111.40311"
       id="text31015"
       transform="rotate(-9.2083658)"
       inkscape:transform-center-x="-0.194889"
       inkscape:transform-center-y="-1.5218145"
       inkscape:export-filename="C:\Users\adamj\Desktop\LOGO2.png"
       inkscape:export-xdpi="96"
       inkscape:export-ydpi="96"><tspan
         sodipodi:role="line"
         id="tspan31013"
         style="font-style:normal;font-variant:normal;font-weight:normal;font-stretch:normal;font-family:Consolas;-inkscape-font-specification:Consolas;stroke-width:0.264583"
         x="79.396439"
         y="111.40311">CS:GO</tspan></text>
    <path
       id="rect47777"
       style="fill:none;stroke:#000000;stroke-width:0.882;stroke-miterlimit:4;stroke-dasharray:none"
       d="m 89.205022,101.43121 27.034028,-2.359405 c 2.5539,6.268825 1.00791,8.871745 0.8344,10.605265 l -26.769444,2.69013 c 0.272023,-5.46919 -0.136584,-8.99372 -1.098984,-10.93599 z"
       sodipodi:nodetypes="ccccc"
       inkscape:export-filename="C:\Users\adamj\Desktop\LOGO2.png"
       inkscape:export-xdpi="96"
       inkscape:export-ydpi="96" />
    <path
       style="fill:none;stroke:#000000;stroke-width:0.749175;stroke-linecap:round;stroke-linejoin:miter;stroke-miterlimit:4;stroke-dasharray:none;stroke-opacity:1"
       d="m 123.46484,102.81464 8.75739,-1.1182"
       id="path49296-5"
       inkscape:export-filename="C:\Users\adamj\Desktop\LOGO2.png"
       inkscape:export-xdpi="96"
       inkscape:export-ydpi="96" />
    <path
       style="fill:none;stroke:#000000;stroke-width:0.989254;stroke-linecap:round;stroke-linejoin:miter;stroke-miterlimit:4;stroke-dasharray:none;stroke-opacity:1"
       d="m 90.184062,118.63892 45.009448,-3.87553"
       id="path49464"
       inkscape:export-filename="C:\Users\adamj\Desktop\LOGO2.png"
       inkscape:export-xdpi="96"
       inkscape:export-ydpi="96" />
    <path
       style="fill:none;stroke:#000000;stroke-width:0.989254;stroke-linecap:round;stroke-linejoin:miter;stroke-miterlimit:4;stroke-dasharray:none;stroke-opacity:1"
       d="m 88.398696,127.3225 45.009444,-3.87552"
       id="path49464-0"
       inkscape:export-filename="C:\Users\adamj\Desktop\LOGO2.png"
       inkscape:export-xdpi="96"
       inkscape:export-ydpi="96" />
    <path
       style="fill:none;stroke:#000000;stroke-width:0.928442;stroke-linecap:round;stroke-linejoin:miter;stroke-miterlimit:4;stroke-dasharray:none;stroke-opacity:1"
       d="m 77.445241,103.81375 5.153692,-0.51582"
       id="path49963"
       inkscape:export-filename="C:\Users\adamj\Desktop\LOGO2.png"
       inkscape:export-xdpi="96"
       inkscape:export-ydpi="96" />
    <path
       id="rect50137"
       style="fill:none;stroke:#000000;stroke-width:0.882;stroke-linecap:round;stroke-miterlimit:4;stroke-dasharray:none"
       d="m 78.030611,109.47165 h 5.659432 v 5.65943 l -5.238482,0.0468 c 0,0 -0.25152,-3.37921 -0.42095,-5.7062 z"
       sodipodi:nodetypes="ccccc"
       inkscape:export-filename="C:\Users\adamj\Desktop\LOGO2.png"
       inkscape:export-xdpi="96"
       inkscape:export-ydpi="96" />
    <path
       style="fill:none;stroke:#000000;stroke-width:0.811153;stroke-linecap:round;stroke-linejoin:miter;stroke-miterlimit:4;stroke-dasharray:none;stroke-opacity:1"
       d="m 79.180236,120.78364 3.687587,-0.26687"
       id="path49963-3-0"
       inkscape:export-filename="C:\Users\adamj\Desktop\LOGO2.png"
       inkscape:export-xdpi="96"
       inkscape:export-ydpi="96" />
  </g>
</svg>
